<?xml version="1.0" standalone="no"?>
<!DOCTYPE svg PUBLIC "-//W3C//DTD SVG 20010904//EN"
 "http://www.w3.org/TR/2001/REC-SVG-20010904/DTD/svg10.dtd">
<svg version="1.0" xmlns="http://www.w3.org/2000/svg"
 width="500.000000pt" height="500.000000pt" viewBox="0 0 500.000000 500.000000"
 preserveAspectRatio="xMidYMid meet">

<g transform="translate(0.000000,500.000000) scale(0.100000,-0.100000)"
fill="#004aad" stroke="none">
<path d="M2225 3606 c-65 -29 -114 -122 -101 -191 8 -40 42 -91 79 -119 22
-16 43 -21 96 -21 59 0 72 4 104 28 49 37 71 81 71 142 0 98 -65 167 -162 172
-34 2 -69 -2 -87 -11z"/>
<path d="M2170 2524 l0 -596 -34 -34 c-30 -30 -40 -34 -85 -34 -53 0 -93 15
-147 56 l-32 23 -45 -117 -45 -117 21 -23 c12 -13 54 -39 93 -58 158 -78 379
-50 485 63 37 39 79 111 79 136 0 11 25 15 103 20 190 12 314 65 437 187 132
131 184 262 183 460 0 136 -28 239 -91 336 -49 75 -163 181 -241 222 -112 60
-185 72 -448 72 l-233 0 0 -596z m477 314 c74 -27 146 -95 185 -176 32 -64 33
-72 33 -182 0 -105 -2 -120 -27 -171 -58 -116 -167 -194 -291 -206 l-67 -6 0
380 c0 209 2 382 5 385 10 10 111 -5 162 -24z"/>
</g>
</svg>
