<?xml version="1.0" standalone="no"?>
<!DOCTYPE svg PUBLIC "-//W3C//DTD SVG 20010904//EN"
 "http://www.w3.org/TR/2001/REC-SVG-20010904/DTD/svg10.dtd">
<svg version="1.0" xmlns="http://www.w3.org/2000/svg"
 width="500.000000pt" height="500.000000pt" viewBox="0 0 500.000000 500.000000"
 preserveAspectRatio="xMidYMid meet">

<g transform="translate(0.000000,500.000000) scale(0.100000,-0.100000)"
fill="#000000" stroke="none">
<path d="M2760 3250 c0 -19 -7 -20 -238 -20 l-238 0 -38 -172 c-20 -95 -39
-181 -42 -190 -5 -15 1 -18 35 -18 l41 0 0 -510 0 -510 350 0 c193 0 350 2
350 5 0 3 18 86 40 185 22 99 40 182 40 185 0 3 -90 5 -200 5 l-200 0 0 85 0
85 170 0 c94 0 170 2 170 5 0 3 14 69 30 147 17 77 30 143 30 145 0 1 -90 3
-200 3 l-200 0 0 85 0 85 168 0 169 0 42 193 c23 105 45 200 47 210 5 16 -7
17 -160 17 -159 0 -166 -1 -166 -20z"/>
<path d="M3673 3250 c-5 -19 -14 -20 -219 -20 -117 0 -215 -4 -218 -8 -3 -5
-21 -80 -40 -168 -20 -87 -38 -169 -41 -181 -5 -23 -4 -23 95 -23 l100 0 0
-510 0 -510 39 0 c52 0 64 17 59 82 -5 55 -18 98 -47 158 -15 29 -19 90 -12
138 1 2 11 -4 23 -12 28 -20 52 -20 68 -1 21 25 30 17 30 -24 0 -46 28 -86 76
-106 52 -22 76 -68 72 -140 l-4 -60 33 0 33 0 0 493 0 492 93 0 94 0 42 193
c23 105 45 200 47 210 5 16 -7 17 -156 17 -153 0 -162 -1 -167 -20z"/>
<path d="M1255 3218 c-3 -7 -22 -92 -43 -188 l-39 -175 44 -3 43 -3 0 -442 1
-442 22 30 c12 17 39 49 61 73 39 42 39 43 26 82 -7 22 -10 43 -6 48 4 4 43 9
87 11 75 3 79 2 79 -18 0 -12 -6 -21 -15 -21 -8 0 -15 -7 -15 -15 0 -8 -5 -24
-12 -34 -9 -15 -9 -32 0 -73 10 -43 9 -60 -3 -93 -8 -22 -14 -59 -15 -82 l0
-43 80 0 80 0 0 154 0 154 77 7 c206 19 321 103 392 285 92 234 49 517 -101
677 -98 103 -183 122 -546 123 -145 0 -194 -3 -197 -12z m458 -377 c95 -54 86
-275 -13 -326 -16 -8 -38 -15 -50 -15 -19 0 -20 5 -20 185 l0 185 28 -6 c15
-4 39 -14 55 -23z"/>
<path d="M1408 1899 c-33 -19 -15 -69 24 -69 13 0 17 6 14 23 -3 12 -5 30 -5
40 -1 19 -8 21 -33 6z"/>
<path d="M1354 1676 c-10 -26 0 -51 21 -51 16 0 20 7 20 30 0 33 -30 49 -41
21z"/>
<path d="M1420 1669 c-10 -17 -9 -24 4 -37 12 -13 18 -13 31 -2 20 17 16 54
-7 58 -9 2 -22 -6 -28 -19z"/>
<path d="M3546 1674 c-7 -19 11 -57 26 -52 23 8 32 36 19 52 -17 20 -37 20
-45 0z"/>
<path d="M3622 1678 c-17 -17 -15 -47 3 -54 21 -9 47 15 43 40 -4 24 -28 32
-46 14z"/>
<path d="M1294 1625 c-4 -9 0 -23 9 -32 21 -21 49 -9 45 19 -4 28 -45 38 -54
13z"/>
<path d="M1477 1633 c-4 -3 -7 -17 -7 -30 0 -16 6 -23 19 -23 24 0 45 25 37
45 -5 15 -37 21 -49 8z"/>
<path d="M3487 1628 c-7 -21 12 -48 34 -48 25 0 35 25 19 45 -15 18 -47 20
-53 3z"/>
<path d="M3670 1625 c-18 -21 -5 -47 22 -43 31 4 40 58 10 58 -11 0 -25 -7
-32 -15z"/>
<path d="M1358 1576 c-18 -41 -5 -56 52 -56 48 0 50 1 50 28 0 37 -17 52 -57
52 -26 0 -36 -6 -45 -24z"/>
<path d="M3562 1588 c-7 -7 -12 -25 -12 -40 0 -27 1 -28 55 -28 54 0 55 1 55
28 0 36 -17 52 -55 52 -17 0 -36 -5 -43 -12z"/>
</g>
</svg>
